<svg width="34" height="40" viewBox="0 0 34 40" fill="none" xmlns="http://www.w3.org/2000/svg">
<mask id="mask0_66_31" style="mask-type:luminance" maskUnits="userSpaceOnUse" x="0" y="0" width="34" height="40">
<path d="M33.9564 0H0.170044V40H33.9564V0Z" fill="white"/>
</mask>
<g mask="url(#mask0_66_31)">
<path fill-rule="evenodd" clip-rule="evenodd" d="M20.5245 14.2678C21.755 13.657 23.3204 12.7576 24.8878 11.5253C25.2183 12.2088 25.2548 12.8051 25.0842 13.2865C24.9634 13.6258 24.736 13.921 24.4373 14.1558C24.1136 14.4094 23.7091 14.5945 23.2622 14.6943C22.4142 14.8845 21.424 14.7737 20.5245 14.2678ZM20.7379 20.5272L22.3666 21.464C19.0412 23.3201 18.1369 26.7666 17.0628 30.1232C15.9891 26.7666 15.0848 23.3198 11.7595 21.464L13.3881 20.5272C13.7113 20.4055 13.9192 20.0907 13.9028 19.7469C13.7534 16.6031 14.6059 15.2127 15.756 14.3401C16.1682 14.0275 16.6185 13.8706 17.0628 13.8706C17.5071 13.8706 17.9574 14.0275 18.3696 14.3401C19.5193 15.2131 20.3718 16.6031 20.2228 19.7469C20.2064 20.0907 20.415 20.4055 20.7379 20.5272ZM17.0632 0C18.9458 0.0504372 20.8333 0.414252 22.4713 1.12223C23.6056 1.61325 24.6637 2.26151 25.6222 3.03698C26.055 3.38708 26.4115 3.7253 26.8041 4.11471C27.8629 4.15105 29.4102 2.97987 30.1286 1.88398C28.8921 5.92006 23.2506 10.686 19.345 12.5099C19.3435 12.5092 19.3424 12.5084 19.3413 12.5077C18.6404 11.9747 17.852 11.7081 17.0635 11.7081C16.2751 11.7081 15.4867 11.9747 14.7858 12.5077C14.7847 12.5084 14.7836 12.5095 14.7821 12.5099C10.8757 10.686 5.23463 5.91969 3.99817 1.88398C4.71658 2.97987 6.26364 4.15142 7.32244 4.11471C7.71498 3.72567 8.07139 3.38708 8.50415 3.03698C9.4624 2.26151 10.5208 1.61325 11.6552 1.12223C13.2935 0.414252 15.1806 0.0504372 17.0632 0ZM13.6019 14.2678C12.3717 13.657 10.8061 12.7576 9.23857 11.5253C8.90823 12.2088 8.87173 12.8051 9.04193 13.2865C9.16259 13.6258 9.39015 13.921 9.68883 14.1558C10.0128 14.4094 10.4172 14.5945 10.8642 14.6943C11.7122 14.8845 12.7028 14.7737 13.6019 14.2678Z" fill="#FDF9D4"/>
<path fill-rule="evenodd" clip-rule="evenodd" d="M26.6047 10.0156C27.4676 9.14851 28.2281 8.18872 28.8393 7.33203L29.1499 7.91391C30.1495 9.90544 30.669 11.8892 30.669 14.1214L30.6668 17.6639L30.6854 19.5C30.7577 24.0082 31.7375 28.569 33.9564 32.7431L29.3138 29.0152L26.029 34.3233L22.5781 31.0883L17.0632 40.0001L11.5483 31.0887L8.09748 34.3237L4.81269 29.0156L0.170044 32.7435C2.38895 28.5694 3.36843 24.0082 3.44105 19.5004L3.45967 17.6642L3.45744 14.1218C3.45744 11.8892 3.9766 9.90581 4.97656 7.91428L5.28679 7.3324C5.89831 8.18872 6.65843 9.14851 7.52134 10.016L7.2517 10.5734C6.72807 11.6559 6.5549 12.8664 6.9627 14.0179C7.22563 14.7593 7.70532 15.3953 8.32392 15.8808C8.92464 16.3521 9.6356 16.67 10.3797 16.8368C10.8646 16.9455 11.3584 16.9904 11.8493 16.9752C11.7349 17.6216 11.6846 18.2917 11.6817 18.9749L7.30235 21.4937L10.6817 23.3799C10.9517 23.5309 11.2091 23.7033 11.4504 23.8966C14.2365 26.3876 15.9117 33.757 17.0628 37.3566C18.214 33.757 19.8892 26.3876 22.6753 23.8966C22.9166 23.7037 23.174 23.5309 23.444 23.3799L26.8234 21.4937L22.444 18.9749C22.4407 18.2917 22.3907 17.6216 22.2764 16.9752C22.7673 16.9904 23.2611 16.9455 23.746 16.8368C24.4901 16.67 25.2011 16.3521 25.8018 15.8808C26.4204 15.3953 26.9001 14.7593 27.163 14.0179C27.5708 12.8668 27.3976 11.6563 26.874 10.5734L26.6047 10.0156Z" fill="#FDF9D4"/>
</g>
</svg>
